<?xml version="1.0" encoding="UTF-8"?>
<svg xmlns="http://www.w3.org/2000/svg" xmlns:xlink="http://www.w3.org/1999/xlink" width="16pt" height="16pt" viewBox="0 0 16 16" version="1.1">
<g id="surface1">
<path style=" stroke:none;fill-rule:nonzero;fill:rgb(0%,0%,0%);fill-opacity:1;" d="M 13.769531 0.394531 L 13.894531 2.980469 C 12.425781 1.246094 10.265625 0.246094 7.996094 0.25 C 4.210938 0.25 1.058594 2.964844 0.382812 6.558594 C 0.363281 6.667969 0.394531 6.777344 0.464844 6.863281 C 0.535156 6.949219 0.640625 7 0.753906 7 L 2.285156 7 C 2.460938 7 2.609375 6.878906 2.648438 6.710938 C 3.160156 4.589844 4.875 2.972656 7.023438 2.585938 C 9.167969 2.203125 11.339844 3.121094 12.554688 4.929688 L 9.386719 4.78125 C 9.285156 4.773438 9.183594 4.8125 9.109375 4.882812 C 9.035156 4.953125 8.992188 5.050781 8.992188 5.15625 L 8.992188 6.636719 C 8.992188 6.84375 9.160156 7.011719 9.367188 7.011719 L 15.625 7.011719 C 15.832031 7.011719 16 6.84375 16 6.636719 L 16 0.375 C 16 0.167969 15.832031 0 15.625 0 L 14.144531 0 C 14.042969 0 13.945312 0.0429688 13.875 0.117188 C 13.800781 0.191406 13.765625 0.289062 13.769531 0.394531 Z M 7.996094 13.5 C 6.164062 13.5 4.453125 12.589844 3.433594 11.070312 L 6.613281 11.222656 C 6.714844 11.226562 6.816406 11.1875 6.890625 11.117188 C 6.964844 11.046875 7.007812 10.949219 7.007812 10.847656 L 7.007812 9.363281 C 7.007812 9.15625 6.839844 8.988281 6.632812 8.988281 L 0.375 8.988281 C 0.167969 8.988281 0 9.15625 0 9.363281 L 0 15.625 C 0 15.832031 0.167969 16 0.375 16 L 1.855469 16 C 1.957031 16 2.054688 15.957031 2.125 15.882812 C 2.199219 15.808594 2.234375 15.707031 2.230469 15.605469 L 2.101562 13.027344 C 3.570312 14.757812 5.726562 15.753906 7.996094 15.75 C 11.78125 15.75 14.929688 13.035156 15.605469 9.441406 C 15.625 9.332031 15.597656 9.222656 15.523438 9.136719 C 15.453125 9.050781 15.347656 9 15.238281 9 L 13.703125 9 C 13.53125 9 13.378906 9.121094 13.339844 9.289062 C 12.746094 11.757812 10.535156 13.5 7.996094 13.5 Z M 7.996094 13.5 "/>
</g>
</svg>
